<svg width="87" height="83" viewBox="0 0 87 83" fill="none" xmlns="http://www.w3.org/2000/svg">
<path d="M21.0098 20.9395L19.0078 22.9023V28H17.8066V13.7812H19.0078V21.4277L20.9414 19.416L26.2832 13.7812H27.7969L21.8398 20.0996L28.2656 28H26.8008L21.0098 20.9395ZM30.6875 28V13.7812H31.8887V28H30.6875ZM45.1309 28L36.9668 15.832V28H35.7559V13.7812H36.9668L45.1406 25.9492V13.7812H46.3418V28H45.1309ZM53.9492 13.7812C55.1211 13.7812 56.166 14.0482 57.084 14.582C58.0085 15.1159 58.7279 15.8743 59.2422 16.8574C59.7565 17.834 60.0137 18.9603 60.0137 20.2363V21.5449C60.0137 22.8275 59.7565 23.957 59.2422 24.9336C58.7279 25.9102 58.0052 26.6654 57.0742 27.1992C56.1432 27.7331 55.0723 28 53.8613 28H50.6387H49.9746V13.7812H51.1758H53.9492ZM58.8223 20.2168C58.8223 19.1361 58.6204 18.1888 58.2168 17.375C57.8131 16.5547 57.2435 15.9232 56.5078 15.4805C55.7721 15.0312 54.9193 14.8066 53.9492 14.8066H51.1758V26.9844H53.8613C54.8639 26.9844 55.7396 26.7565 56.4883 26.3008C57.237 25.8451 57.8131 25.207 58.2168 24.3867C58.6204 23.5664 58.8223 22.6191 58.8223 21.5449V20.2168ZM28.3047 39.6523C28.3047 40.9674 28.0768 42.1198 27.6211 43.1094C27.1719 44.0924 26.5306 44.8542 25.6973 45.3945C24.8639 45.9284 23.8906 46.1953 22.7773 46.1953C21.6836 46.1953 20.7168 45.9284 19.877 45.3945C19.0371 44.8542 18.3861 44.0892 17.9238 43.0996C17.4616 42.11 17.2305 40.9609 17.2305 39.6523V38.1289C17.2305 36.8203 17.4583 35.6712 17.9141 34.6816C18.3763 33.6921 19.0241 32.9303 19.8574 32.3965C20.6973 31.8561 21.6641 31.5859 22.7578 31.5859C23.8711 31.5859 24.8444 31.8561 25.6777 32.3965C26.5176 32.9303 27.1654 33.6921 27.6211 34.6816C28.0768 35.6647 28.3047 36.8138 28.3047 38.1289V39.6523ZM27.1133 38.1094C27.1133 36.9896 26.9408 36.0195 26.5957 35.1992C26.2507 34.3789 25.7493 33.7474 25.0918 33.3047C24.4408 32.862 23.6628 32.6406 22.7578 32.6406C21.8724 32.6406 21.1042 32.862 20.4531 33.3047C19.8021 33.7474 19.3008 34.3822 18.9492 35.209C18.6042 36.0293 18.4316 36.9961 18.4316 38.1094V39.6523C18.4316 40.7721 18.6074 41.7454 18.959 42.5723C19.3105 43.3926 19.8118 44.0273 20.4629 44.4766C21.1204 44.9193 21.8919 45.1406 22.7773 45.1406C23.6888 45.1406 24.4701 44.9193 25.1211 44.4766C25.7721 44.0339 26.2669 43.4023 26.6055 42.582C26.944 41.7552 27.1133 40.7786 27.1133 39.6523V38.1094ZM32.5625 32.8066V38.3242H39.1836V39.3594H32.5625V46H31.3613V31.7812H32.5625H40.1699V32.8066H32.5625ZM31.498 64H30.2969V57.7793L30.4043 51.4609L25.1016 64H24.1738L18.9004 51.5L19.0078 57.7793V64H17.8066V49.7812H18.8711H19.3887L24.6426 62.3203L29.8965 49.7812H31.498V64ZM42.7871 60.0156H36.3223L34.8574 64H33.6074L38.9785 49.7812H39.8574H40.1211L45.502 64H44.252L42.7871 60.0156ZM42.4062 58.9902L39.5547 51.2461L36.7031 58.9902H42.4062ZM57.8652 62.3008C57.6634 62.5872 57.3574 62.8737 56.9473 63.1602C56.5436 63.4466 56 63.6908 55.3164 63.8926C54.6393 64.0944 53.8418 64.1953 52.9238 64.1953C51.8105 64.1953 50.821 63.9316 49.9551 63.4043C49.0957 62.8704 48.4251 62.112 47.9434 61.1289C47.4616 60.1458 47.2207 59.0033 47.2207 57.7012V55.9727C47.2207 54.6771 47.4421 53.5508 47.8848 52.5937C48.334 51.6302 48.972 50.888 49.7988 50.3672C50.6322 49.8464 51.612 49.5859 52.7383 49.5859C53.7604 49.5859 54.6361 49.765 55.3652 50.123C56.0944 50.4811 56.6641 50.9759 57.0742 51.6074C57.4909 52.2389 57.7513 52.9648 57.8555 53.7852H56.6543C56.498 52.8411 56.1042 52.0762 55.4727 51.4902C54.8477 50.9043 53.9362 50.6113 52.7383 50.6113C51.8268 50.6113 51.0488 50.8327 50.4043 51.2754C49.7598 51.7181 49.2682 52.3398 48.9297 53.1406C48.5977 53.9414 48.4316 54.8789 48.4316 55.9531V57.7012C48.4316 58.7949 48.6172 59.7552 48.9883 60.582C49.3594 61.4089 49.8835 62.0501 50.5605 62.5059C51.2441 62.9551 52.0352 63.1797 52.9336 63.1797C53.6042 63.1797 54.1934 63.1146 54.7012 62.9844C55.2155 62.8542 55.6322 62.6979 55.9512 62.5156C56.2767 62.3268 56.5176 62.1348 56.6738 61.9395V58.2676H52.8555V57.2422H57.8652V62.3008ZM61.5664 64V49.7812H62.7676V64H61.5664ZM76.6934 59.5664C76.5436 61.0312 76.0195 62.1706 75.1211 62.9844C74.2292 63.7917 73.0117 64.1953 71.4687 64.1953C70.401 64.1953 69.4635 63.9284 68.6562 63.3945C67.849 62.8607 67.224 62.1087 66.7812 61.1387C66.3385 60.1686 66.1172 59.0488 66.1172 57.7793V56.002C66.1172 54.7259 66.3385 53.6061 66.7812 52.6426C67.224 51.6725 67.8555 50.9206 68.6758 50.3867C69.4961 49.8529 70.4531 49.5859 71.5469 49.5859C72.5495 49.5859 73.4186 49.7682 74.1543 50.1328C74.89 50.4974 75.4727 51.028 75.9023 51.7246C76.332 52.4147 76.5957 53.248 76.6934 54.2246H75.4922C75.1862 51.8158 73.8711 50.6113 71.5469 50.6113C70.681 50.6113 69.929 50.8359 69.291 51.2852C68.653 51.7279 68.1647 52.3529 67.8262 53.1602C67.4876 53.9674 67.3184 54.9082 67.3184 55.9824V57.7793C67.3184 58.8275 67.4811 59.7617 67.8066 60.582C68.1322 61.3958 68.6074 62.0339 69.2324 62.4961C69.8574 62.9518 70.6029 63.1797 71.4687 63.1797C72.7057 63.1797 73.6465 62.8835 74.291 62.291C74.9355 61.6921 75.3359 60.7839 75.4922 59.5664H76.6934Z" fill="white"/>
<rect x="0.25" y="5.63031" width="81.5588" height="76.9905" stroke="white" stroke-width="0.5"/>
<rect x="5.19116" y="0.25" width="81.5588" height="76.9905" stroke="white" stroke-width="0.5"/>
</svg>
